<?xml version="1.0" encoding="utf-8"?>
<!-- Generator: Adobe Illustrator 17.1.0, SVG Export Plug-In . SVG Version: 6.00 Build 0)  -->
<!DOCTYPE svg PUBLIC "-//W3C//DTD SVG 1.1//EN" "http://www.w3.org/Graphics/SVG/1.1/DTD/svg11.dtd">
<svg version="1.1" id="Layer_1" xmlns="http://www.w3.org/2000/svg" xmlns:xlink="http://www.w3.org/1999/xlink" x="0px" y="0px"
	 viewBox="0 0 126 364.1" enable-background="new 0 0 126 364.1" xml:space="preserve">
<g>
	<g opacity="0.15">
		<path fill="#3A3A3A" d="M7.9,162.9C7.9,90.1,39.5,28.3,52.4,6.1c2.3-4,8-4.1,10.5-0.4C63,5.8,63.1,6,63.2,6.1
			c12.9,22.2,44.5,84,44.5,156.8c0,72.8-31.6,134.6-44.5,156.8c-0.1,0.1-0.2,0.3-0.2,0.4c-2.6,3.7-8.2,3.6-10.5-0.4
			C39.5,297.5,7.9,235.7,7.9,162.9z"/>
	</g>
	<path fill="#F0594F" d="M72,354.4c0.1,0.1,0.2,0.3,0.3,0.4c0.1-0.1,0.2-0.3,0.3-0.4c12.9-22.2,44.5-84,44.5-156.8
		c0-72.8-31.6-134.6-44.5-156.8c-0.1-0.1-0.2-0.3-0.3-0.4c-0.1,0.1-0.2,0.3-0.3,0.4c-12.9,22.2-44.5,84-44.5,156.8
		C27.5,270.4,59.1,332.2,72,354.4z M67.1,108.8c1.8,0,3.5,0.3,5.1,0.9c4.1,1.4,7.9,4.4,11,8.6c6.2,8.2,10.2,20.9,10.2,35.2
		c0,21.7-9.1,39.7-21.2,43.8c-1.7,0.6-3.4,0.9-5.1,0.9c-8.8,0-16.5-7.3-21.3-18.4c-3.2-7.4-5-16.4-5-26.2
		C40.8,128.8,52.6,108.8,67.1,108.8z"/>
	<path fill="#E24143" d="M17.2,197.7c0-72.8,31.6-134.6,44.5-156.8c2.3-4,8-4.1,10.5-0.4c-0.1,0.1-0.2,0.3-0.3,0.4
		c-12.9,22.2-44.5,84-44.5,156.8c0,72.8,31.6,134.6,44.5,156.8c0.1,0.1,0.2,0.3,0.3,0.4c-2.6,3.7-8.2,3.6-10.5-0.4
		C48.8,332.2,17.2,270.4,17.2,197.7z"/>
	<path fill="#A02939" d="M45.8,179.7c4.5,5.9,10.1,9.4,16.2,9.4c14.5,0,26.3-20,26.3-44.7c0-9.8-1.9-18.9-5-26.2
		c6.2,8.2,10.2,20.9,10.2,35.2c0,24.7-11.8,44.7-26.3,44.7C58.3,198.1,50.6,190.9,45.8,179.7z"/>
	<path fill="#BC3635" d="M40.8,153.5c0-24.7,11.8-44.7,26.3-44.7c6.1,0,11.7,3.5,16.2,9.4c3.2,7.4,5,16.4,5,26.2
		c0,24.7-11.8,44.7-26.3,44.7c-6.1,0-11.7-3.5-16.2-9.4C42.6,172.4,40.8,163.3,40.8,153.5z"/>
	<path fill="#FFFFFF" d="M44.8,233.2L65,257.8l-20.3,24.8c-0.4,0.5-0.5,1.1-0.2,1.7c0.3,0.6,0.8,0.9,1.5,0.9h42.4
		c0.6,0,1.2-0.4,1.5-0.9c0.3-0.6,0.2-1.2-0.2-1.7l-20.3-24.8l20.3-24.8c0.4-0.5,0.5-1.1,0.2-1.7c-0.3-0.6-0.8-0.9-1.5-0.9H45.9
		c0,0,0,0,0,0c-0.9,0-1.6,0.7-1.6,1.6C44.3,232.5,44.5,232.9,44.8,233.2z M84.9,282H49.3l17.8-21.7L84.9,282z M84.9,233.6
		l-17.8,21.7l-17.8-21.7H84.9z"/>
	<path fill="#404041" d="M88.3,285.5L88.3,285.5c1,0,1.9-0.8,1.9-1.9l0,0c0-1-0.8-1.9-1.9-1.9h0c-1,0-1.9,0.8-1.9,1.9l0,0
		C86.4,284.7,87.2,285.5,88.3,285.5z"/>
	<path fill="#404041" d="M45.9,285.5L45.9,285.5c1,0,1.9-0.8,1.9-1.9l0,0c0-1-0.8-1.9-1.9-1.9h0c-1,0-1.9,0.8-1.9,1.9l0,0
		C44,284.7,44.9,285.5,45.9,285.5z"/>
	<path fill="#404041" d="M45.9,234L45.9,234c1,0,1.9-0.8,1.9-1.9l0,0c0-1-0.8-1.9-1.9-1.9h0c-1,0-1.9,0.8-1.9,1.9l0,0
		C44,233.1,44.9,234,45.9,234z"/>
	<path fill="#404041" d="M88.3,234L88.3,234c1,0,1.9-0.8,1.9-1.9l0,0c0-1-0.8-1.9-1.9-1.9h0c-1,0-1.9,0.8-1.9,1.9l0,0
		C86.4,233.1,87.2,234,88.3,234z"/>
</g>
</svg>
